# xmcd CD database file
#
# Track frame offsets:
#	150
#	13955
#	27935
#	45960
#	59920
#	73915
#	85242
#	101010
#	113762
#	133665
#	151330
#	165732
#
# Disc length: 2478 seconds
#
# Revision: 1
# Processed by: cddbd v1.5.2PL0 Copyright (c) Steve Scherf et al.
# Submitted via: CDex 1.79
#
DISCID=a309ac0c
DTITLE=George Hamilton V - Garden Of Love
DYEAR=1998
DGENRE=Country
TTITLE0=Edinburgh (Near As I Can Tell)
TTITLE1=Pass Me By
TTITLE2=Mighta Made Her Mine
TTITLE3=Plain To See
TTITLE4=New Shoes
TTITLE5=Gone, Gone, Gone
TTITLE6=Can`t Tell Ya Why
TTITLE7=House Of Tears
TTITLE8=She`s Somethin` Else (Just Can`t Help Myself)
TTITLE9=Black Coffee
TTITLE10=Stay Another Night
TTITLE11=I Love This Town
EXTD=YEAR: 1998
EXTT0=
EXTT1=
EXTT2=
EXTT3=
EXTT4=
EXTT5=
EXTT6=
EXTT7=
EXTT8=
EXTT9=
EXTT10=
EXTT11=
PLAYORDER=
